inDegrees=no
num_controls=7
num_derivatives=13
num_iterations=131
num_multipliers=7
num_parameters=0
num_slacks=7
num_states=26
objective=0.480692
objective_accelerations=0.028448
objective_balance=0.000527
objective_effort=0.009216
objective_height=0.433261
objective_ligament=0.009240
solver_duration=2002.815149
status=Solve_Succeeded
success=true
DataType=double
version=3
OpenSimVersion=4.5
endheader
time	/jointset/ground_pelvis/pelvis_tilt/value	/jointset/ground_pelvis/pelvis_tx/value	/jointset/ground_pelvis/pelvis_ty/value	/jointset/hip_l/hip_flexion_l/value	/jointset/hip_l/hip_adduction_l/value	/jointset/hip_l/hip_rotation_l/value	/jointset/back/lumbar_extension/value	/jointset/patellofemoral_l/patellar_flexion_l/value	/jointset/knee_l/knee_flexion_l/value	/jointset/knee_l/knee_adduction_l/value	/jointset/knee_l/knee_rotation_l/value	/jointset/ankle_l/ankle_angle_l/value	/jointset/subtalar_l/subtalar_angle_l/value	/jointset/ground_pelvis/pelvis_tilt/speed	/jointset/ground_pelvis/pelvis_tx/speed	/jointset/ground_pelvis/pelvis_ty/speed	/jointset/hip_l/hip_flexion_l/speed	/jointset/hip_l/hip_adduction_l/speed	/jointset/hip_l/hip_rotation_l/speed	/jointset/back/lumbar_extension/speed	/jointset/patellofemoral_l/patellar_flexion_l/speed	/jointset/knee_l/knee_flexion_l/speed	/jointset/knee_l/knee_adduction_l/speed	/jointset/knee_l/knee_rotation_l/speed	/jointset/ankle_l/ankle_angle_l/speed	/jointset/subtalar_l/subtalar_angle_l/speed	/forceset/tau_hip_flexion_l	/forceset/tau_hip_adduction_l	/forceset/tau_hip_rotation_l	/forceset/tau_knee_flexion_l	/forceset/tau_ankle_angle_l	/forceset/tau_subtalar_angle_l	/forceset/tau_lumbar_extension	lambda_cid13_p0	lambda_cid13_p1	lambda_cid13_p2	lambda_cid13_p3	lambda_cid13_p4	lambda_cid13_p5	lambda_cid14_p0	/jointset/ground_pelvis/pelvis_tilt/accel	/jointset/ground_pelvis/pelvis_tx/accel	/jointset/ground_pelvis/pelvis_ty/accel	/jointset/hip_l/hip_flexion_l/accel	/jointset/hip_l/hip_adduction_l/accel	/jointset/hip_l/hip_rotation_l/accel	/jointset/back/lumbar_extension/accel	/jointset/patellofemoral_l/patellar_flexion_l/accel	/jointset/knee_l/knee_flexion_l/accel	/jointset/knee_l/knee_adduction_l/accel	/jointset/knee_l/knee_rotation_l/accel	/jointset/ankle_l/ankle_angle_l/accel	/jointset/subtalar_l/subtalar_angle_l/accel	gamma_cid13_p0	gamma_cid13_p1	gamma_cid13_p2	gamma_cid13_p3	gamma_cid13_p4	gamma_cid13_p5	gamma_cid14_p0
0	0.05813228671635618	0.1028364679798645	0.9058681473524256	0.1266922784136757	-0.3434012627575925	-0.244466603222463	-0.2144969558742783	0.2051545070141877	0.2051545070141877	-0.1193601919573745	-0.1662838290685315	0.09024313228550125	0.1082682899919261	0	0	0	0	0	0	0	0	0	0	0	0	0	0.09341744901154728	-0.06295881885566135	-0.006867066571636496	-0.2329680561668729	0.1794874782248379	-0.04668630888897743	-0.0264537255971823	28.83806306618824	16.95438180604026	-4.957626975542056	-27.91545304576366	-444.6624515704144	-72.00425231580887	-26.05792282574967	-0.499026617832611	-0.05341432262955965	-0.4398297082370335	4.502584842902118	-0.3067962964094478	1.856019476780186	-2.6944316904623	6.611153318978652	6.611153318978332	1.17610302620315	-0.4478849946057115	3.147500559734032	0.6646957045128377	-3.763088003402446e-09	1.77491332450937e-07	-6.070038560246571e-08	1.83774920693079e-08	2.104079524072214e-08	1.194516818219163e-07	2.085275438989068e-08
0.01	0.05811049363472719	0.102833830599547	0.9058468429007872	0.1269097823885328	-0.3434157606007442	-0.2443718133901221	-0.2146331465061325	0.2054775336491878	0.2054775336491851	-0.1193019863437276	-0.1663014662519559	0.09039747306271946	0.1083014349252919	-0.004352449644994615	-0.000536488165542666	-0.004247131105289721	0.04332548085121652	-0.00289445050172086	0.01888731614516701	-0.0270615804974661	0.06430011126953653	0.06430011126953421	0.01156262681071928	-0.003494361842481325	0.03070309269028444	0.006582829293983526	0.09151801957681042	-0.06906539608720472	-0.006479348375889054	-0.2299010787761015	0.1725279967655599	-0.03942974557202516	-0.02500585886758897	27.03889238626241	13.87458838252254	-4.188728155474977	-26.67461146180171	-445.2559791994845	-78.20370317499838	-26.05817133445782	-0.4024300636993722	-0.05511420333467415	-0.4150867201552806	4.221231630313063	-0.2800152281060626	1.894504757192399	-2.685539348377083	6.29365350086428	6.293653500864132	1.134589432796591	-0.2952642645668812	3.006958086599862	0.6481324241412122	-1.011701759073232e-08	2.415222590648759e-07	-6.619688255983288e-08	3.004138659256236e-08	-3.514717538440623e-08	1.353803497395024e-07	2.963656891630964e-08
0.02	0.05804536087147481	0.1028255587096105	0.9057834807563997	0.1275552815567183	-0.343459052109124	-0.2440902669815685	-0.2150346565667591	0.2064344040908648	0.2064344040908648	-0.1191305050771184	-0.1663530575509091	0.09085389365942517	0.1083990193280575	-0.008667936324648741	-0.001126901923811039	-0.008411538549792768	0.08559903866569819	-0.005758733045548718	0.0373513152426314	-0.05306388575446448	0.1267687613359981	0.1267687613359952	0.02265513059304968	-0.006790823104864049	0.06041596389753735	0.01288789387997117	0.08961859014207728	-0.0751719733187448	-0.006091630180117566	-0.2268341013853286	0.1655685153062842	-0.03217318225506881	-0.02355799213799531	25.27070019335477	10.79629399186276	-3.427976467875542	-25.50855564509587	-445.3347514250816	-84.28179677481623	-26.0587803467298	-0.4916340247645101	-0.06419944117470457	-0.4232849760796985	4.292200235555149	-0.3007627048308474	1.771356067239662	-2.482576642368752	6.244861078363666	6.244861078363686	1.082078420525373	-0.4083048785859917	2.949456263127721	0.6091427629136597	-1.647094717806219e-08	3.055531856788149e-07	-7.169337951720006e-08	4.170528111581682e-08	-9.133514600953459e-08	1.513090176570884e-07	3.84203834427286e-08
0.03	0.05793723105133253	0.102811012595422	0.9056787909979719	0.1286186415707971	-0.3435307272725976	-0.2436266163865875	-0.2156907827579562	0.2080071778683082	0.2080071778683108	-0.1188501789340113	-0.166437032622116	0.0916025376730549	0.1085584234687624	-0.0129380382481181	-0.001800789063409396	-0.0125192355556737	0.1269024671446592	-0.00856198795010053	0.05531837805139093	-0.07799083596933472	0.1874889244364472	0.1874889244364455	0.03334397423733967	-0.009953695613923581	0.08914225614994165	0.01895661217757295	0.08722918916343114	-0.06954512329901766	-0.005715973332647426	-0.2231815243427732	0.1607403110639581	-0.03502795502601134	-0.02178217295387772	23.49841847401873	12.19661858638924	-3.480099474617952	-23.99826475615946	-445.677476038777	-80.82254675001766	-26.05958745586737	-0.3916989926477796	-0.07174518460750537	-0.4034539198772371	4.023838559819588	-0.2679894170678179	1.800338045721181	-2.47217673369999	5.941025748849066	5.941025748849238	1.052410359476682	-0.2627226556294436	2.808635129167798	0.6002488281758144	-2.141044663562937e-08	3.33346686956855e-07	-6.32318199750327e-08	4.834534031909365e-08	-1.38588513964113e-07	1.426515700525717e-07	4.224752403618782e-08
0.04	0.05778700006865368	0.1027891752429865	0.9055332358980782	0.1300899207508155	-0.3436300114918766	-0.2429851038319127	-0.2165910629558327	0.2101782396413511	0.2101782396413511	-0.1184649397498377	-0.166551125262123	0.09263332849378311	0.1087774172854418	-0.01708816883197159	-0.002585149573213598	-0.01658460684295183	0.1671828718537411	-0.01128054420667016	0.07292370718123377	-0.1018946870903578	0.2464263604554378	0.246426360455437	0.043637738805464	-0.01281433686552368	0.1168453253171863	0.02480582907486961	0.08483978818477397	-0.06391827327929521	-0.005340316485195981	-0.2195289473002246	0.1559121068216276	-0.03788272779696018	-0.02000635376976407	21.75449208701822	13.60151290849202	-3.543841949415395	-22.55453335024691	-445.5377133098606	-77.24209953051709	-26.06022057605747	-0.4676397568413322	-0.08629411521587696	-0.4148198323591394	4.087595481579322	-0.2838229752344125	1.699009331456323	-2.277956823599317	5.888315662071967	5.888315662071927	1.003062605292242	-0.347858627094106	2.74481164609579	0.5652424828526351	-2.63207825853664e-08	3.603930248259074e-07	-5.44824654534935e-08	5.488181528896888e-08	-1.856576633069275e-07	1.334871922311043e-07	4.597246516711178e-08
0.05	0.05759554044356378	0.1027590676052564	0.9053471328139248	0.1319591462961738	-0.3437562317094179	-0.2421699229830689	-0.2177251162155227	0.2129299770861119	0.2129299770861101	-0.1179790670244281	-0.1666929551115393	0.09393619032494593	0.1090536883418343	-0.02119600842526155	-0.003441822766316604	-0.02063522975269412	0.2064869005456164	-0.01395049448657487	0.09003835601054146	-0.1247524391111596	0.3036223958516017	0.3036223958516043	0.05346222914462708	-0.01550811775649736	0.1435696918664028	0.03041639099354642	0.08279253272511379	-0.06511111408441095	-0.004930289689140459	-0.2169755243757512	0.1504258115319227	-0.03468658408235757	-0.01843880317381682	20.1861712486737	12.32425373601131	-3.153140724552433	-21.45553749688773	-445.6999559844195	-79.42209207982756	-26.06029037338893	-0.3811916238666466	-0.08615961121009055	-0.4001039969150358	3.825504960065856	-0.2566707432689248	1.706596631636572	-2.265155530843308	5.590428357060188	5.590428357060694	0.9610090829632145	-0.2236275580810707	2.612654975605126	0.5541146423354889	-2.758547431681754e-08	3.720917650810505e-07	-6.786012921903304e-08	5.909813511190525e-08	-2.156654634689314e-07	1.467032392949246e-07	4.97046048900691e-08
